<svg width="310" height="351" viewBox="0 0 310 351" fill="none" xmlns="http://www.w3.org/2000/svg">
<path d="M138.8 69.2934L81.632 36.2258L24.4631 3.15819C21.9837 1.72531 19.1716 0.971262 16.3092 0.971802C13.4469 0.972342 10.635 1.72744 8.15614 3.16126C5.67727 4.59508 3.61865 6.65714 2.187 9.14031C0.755349 11.6235 0.00107931 14.4404 0 17.308V149.577C0.000962519 152.445 0.755153 155.262 2.18675 157.745C3.61835 160.228 5.67696 162.29 8.15586 163.724C10.6348 165.158 13.4467 165.913 16.3091 165.914C19.1715 165.914 21.9836 165.16 24.4631 163.728L81.632 130.66L138.8 97.593C141.28 96.1591 143.339 94.0965 144.77 91.6127C146.201 89.1289 146.955 86.3113 146.955 83.4432C146.955 80.5751 146.201 77.7575 144.77 75.2737C143.339 72.7898 141.28 70.7273 138.8 69.2934Z" fill="#F02D5E"/>
<path d="M138.8 253.475L81.632 220.408L24.4631 187.341C21.9836 185.908 19.1715 185.154 16.309 185.154C13.4466 185.155 10.6348 185.91 8.15586 187.344C5.67696 188.778 3.61831 190.84 2.18671 193.323C0.755112 195.807 0.000962518 198.624 0 201.491V333.76C0.000962518 336.627 0.755112 339.444 2.18671 341.928C3.61831 344.411 5.67696 346.473 8.15586 347.907C10.6348 349.341 13.4466 350.096 16.309 350.096C19.1715 350.097 21.9836 349.343 24.4631 347.91L81.632 314.843L138.8 281.776C141.28 280.342 143.339 278.279 144.77 275.795C146.202 273.311 146.956 270.494 146.956 267.625C146.956 264.757 146.202 261.94 144.77 259.456C143.339 256.972 141.28 254.909 138.8 253.475Z" fill="#F02D5E"/>
<path d="M301.845 161.398L244.677 128.331L187.508 95.2639C185.029 93.831 182.216 93.077 179.354 93.0775C176.492 93.0781 173.68 93.8332 171.201 95.267C168.722 96.7008 166.664 98.7628 165.232 101.246C163.8 103.729 163.046 106.546 163.045 109.414V241.683C163.046 244.55 163.8 247.367 165.232 249.85C166.664 252.334 168.722 254.396 171.201 255.829C173.68 257.263 176.492 258.018 179.354 258.019C182.216 258.019 185.029 257.265 187.508 255.833L244.677 222.766L301.845 189.698C304.325 188.264 306.383 186.202 307.815 183.718C309.246 181.234 310 178.416 310 175.548C310 172.68 309.246 169.863 307.815 167.379C306.383 164.895 304.325 162.832 301.845 161.398Z" fill="#F02D5E"/>
</svg>
