<svg width="34" height="30" viewBox="0 0 34 30" fill="none" xmlns="http://www.w3.org/2000/svg">
<g clip-path="url(#clip0_124_12)">
<path d="M6.71216 16.5677L3.50903 22.1001L0.305903 27.6326C0.167106 27.8725 0.0940639 28.1447 0.0941162 28.4217C0.0941685 28.6987 0.167312 28.9708 0.3062 29.2107C0.445089 29.4506 0.644833 29.6498 0.885368 29.7884C1.1259 29.9269 1.39877 29.9999 1.67654 30L14.4889 30C14.7667 29.9999 15.0396 29.9269 15.2801 29.7884C15.5206 29.6498 15.7204 29.4506 15.8593 29.2107C15.9982 28.9708 16.0713 28.6987 16.0714 28.4217C16.0714 28.1447 15.9984 27.8726 15.8597 27.6326L12.6565 22.1001L9.45344 16.5677C9.31454 16.3277 9.11474 16.1285 8.87415 15.99C8.63355 15.8515 8.36062 15.7785 8.0828 15.7785C7.80498 15.7785 7.53205 15.8515 7.29145 15.99C7.05085 16.1285 6.85106 16.3277 6.71216 16.5677Z" fill="#8b5cf6"/>
<path d="M24.5532 16.5677L21.3501 22.1001L18.147 27.6326C18.0082 27.8726 17.9352 28.1447 17.9352 28.4217C17.9353 28.6987 18.0084 28.9708 18.1473 29.2107C18.2862 29.4506 18.486 29.6498 18.7265 29.7884C18.9671 29.9269 19.24 29.9999 19.5177 30L32.3301 30C32.6078 29.9999 32.8807 29.9269 33.1213 29.7884C33.3618 29.6498 33.5615 29.4506 33.7004 29.2107C33.8393 28.9708 33.9125 28.6987 33.9125 28.4217C33.9126 28.1447 33.8395 27.8726 33.7007 27.6326L30.4976 22.1001L27.2946 16.5677C27.1557 16.3277 26.9558 16.1285 26.7152 15.99C26.4746 15.8514 26.2017 15.7785 25.9238 15.7785C25.646 15.7785 25.3731 15.8514 25.1325 15.99C24.8919 16.1285 24.6921 16.3277 24.5532 16.5677Z" fill="#8b5cf6"/>
<path d="M15.6341 0.789178L12.431 6.32156L9.2279 11.854C9.0891 12.094 9.01606 12.3662 9.01611 12.6431C9.01617 12.9201 9.08931 13.1922 9.2282 13.4321C9.36709 13.672 9.56683 13.8712 9.80736 14.0098C10.0479 14.1484 10.3208 14.2213 10.5986 14.2214L23.4109 14.2214C23.6887 14.2213 23.9615 14.1484 24.2021 14.0098C24.4427 13.8712 24.6424 13.672 24.7812 13.4321C24.9201 13.1922 24.9933 12.9201 24.9934 12.6431C24.9934 12.3662 24.9203 12.094 24.7816 11.854L21.5785 6.32156L18.3754 0.789178C18.2365 0.549178 18.0367 0.350016 17.7961 0.211436C17.5555 0.0729517 17.2825 -1.58194e-05 17.0047 -1.58194e-05C16.7269 -1.58194e-05 16.454 0.0729517 16.2134 0.211436C15.9728 0.350016 15.773 0.549178 15.6341 0.789178Z" fill="#8b5cf6"/>
</g>
<defs>
<clipPath id="clip0_124_12">
<rect width="30" height="34" fill="white" transform="translate(0 30) rotate(-90)"/>
</clipPath>
</defs>
</svg>
